<svg xmlns="http://www.w3.org/2000/svg" version="1.1" xmlns:xlink="http://www.w3.org/1999/xlink" xmlns:svgjs="http://svgjs.dev/svgjs" width="1500" height="681" viewBox="0 0 1500 681"><g transform="matrix(1,0,0,1,-0.9090909090909918,0.5227454736828463)"><svg viewBox="0 0 396 180" data-background-color="#ffffff" preserveAspectRatio="xMidYMid meet" height="681" width="1500" xmlns="http://www.w3.org/2000/svg" xmlns:xlink="http://www.w3.org/1999/xlink"><g id="tight-bounds" transform="matrix(1,0,0,1,0.2400000000000091,-0.1381706097840123)"><svg viewBox="0 0 395.52 180.27634121956802" height="180.27634121956802" width="395.52"><g><svg viewBox="0 0 395.52 180.27634121956802" height="180.27634121956802" width="395.52"><g transform="matrix(1,0,0,1,0,134.1344863546152)"><svg viewBox="0 0 395.52 46.14185486495281" height="46.14185486495281" width="395.52"><g id="textblocktransform"><svg viewBox="0 0 395.52 46.14185486495281" height="46.14185486495281" width="395.52" id="textblock"><g><svg viewBox="0 0 395.52 46.14185486495281" height="46.14185486495281" width="395.52"><g transform="matrix(1,0,0,1,0,0)"><svg width="395.52" viewBox="3.98 -39.5 450.10999999999996 52.510000000000005" height="46.14185486495281" data-palette-color="#d7dbde"><path d="M29.22-4.49L29.22 0 3.98 0 3.98-35.16 29.22-35.16 29.22-30.66 13.67-30.66 13.67-19.8 25.68-19.8 25.68-15.33 13.67-15.33 13.67-4.49 29.22-4.49ZM48.78-15.55L59.62 0 51.36 0 44.46-9.89 37.4 0 31.69 0 42.31-12.99 31.69-28.2 39.94-28.2 46.63-18.63 53.9-28.2 59.62-28.2 48.78-15.55ZM93.4-14.16L93.4-14.16Q93.4-11.08 92.48-8.4 91.55-5.71 89.79-3.72 88.03-1.73 85.49-0.59 82.95 0.56 79.73 0.56L79.73 0.56Q77.27 0.56 75.2-0.4 73.14-1.37 71.67-3.37L71.67-3.37 71.67 13.01 63.42 13.01 63.42-28.2 66.6-28.2 70.26-22.07Q70.8-23.61 71.74-24.87 72.68-26.12 73.91-27.01 75.14-27.91 76.62-28.39 78.1-28.88 79.73-28.88L79.73-28.88Q82.95-28.88 85.49-27.73 88.03-26.59 89.79-24.6 91.55-22.61 92.48-19.92 93.4-17.24 93.4-14.16ZM85.03-14.16L85.03-14.16Q85.03-15.23 84.92-16.44 84.81-17.65 84.54-18.85 84.27-20.04 83.8-21.14 83.32-22.24 82.59-23.08 81.86-23.93 80.82-24.43 79.78-24.93 78.41-24.93L78.41-24.93Q77-24.93 75.96-24.44 74.92-23.95 74.18-23.11 73.43-22.27 72.96-21.18 72.48-20.09 72.21-18.9 71.94-17.7 71.83-16.48 71.72-15.26 71.72-14.16L71.72-14.16Q71.72-13.18 71.87-12 72.02-10.82 72.33-9.62 72.65-8.42 73.16-7.3 73.68-6.18 74.42-5.3 75.17-4.42 76.15-3.89 77.14-3.37 78.41-3.37L78.41-3.37Q79.8-3.37 80.83-3.87 81.86-4.37 82.59-5.21 83.32-6.05 83.8-7.15 84.27-8.25 84.54-9.45 84.81-10.64 84.92-11.87 85.03-13.09 85.03-14.16ZM128.48-14.16L128.48-14.16Q128.48-11.96 127.9-10.03 127.31-8.11 126.27-6.47 125.24-4.83 123.77-3.53 122.31-2.22 120.56-1.32 118.82-0.42 116.83 0.07 114.84 0.56 112.74 0.56L112.74 0.56Q110.64 0.56 108.66 0.07 106.68-0.42 104.94-1.32 103.19-2.22 101.73-3.53 100.26-4.83 99.22-6.47 98.19-8.11 97.6-10.05 97.01-11.99 97.01-14.16L97.01-14.16Q97.01-16.33 97.6-18.27 98.19-20.21 99.22-21.85 100.26-23.49 101.73-24.79 103.19-26.1 104.94-27 106.68-27.91 108.66-28.39 110.64-28.88 112.74-28.88L112.74-28.88Q114.84-28.88 116.83-28.39 118.82-27.91 120.56-27 122.31-26.1 123.77-24.79 125.24-23.49 126.27-21.85 127.31-20.21 127.9-18.27 128.48-16.33 128.48-14.16ZM120.09-14.16L120.09-14.16Q120.09-15.33 119.95-16.64 119.82-17.94 119.5-19.2 119.18-20.46 118.63-21.62 118.08-22.78 117.28-23.65 116.47-24.51 115.35-25.04 114.23-25.56 112.74-25.56L112.74-25.56Q111.32-25.56 110.22-25.02 109.12-24.49 108.31-23.6 107.49-22.71 106.94-21.53 106.39-20.36 106.05-19.1 105.71-17.85 105.56-16.56 105.41-15.28 105.41-14.16L105.41-14.16Q105.41-13.04 105.56-11.76 105.71-10.47 106.05-9.2 106.39-7.93 106.94-6.77 107.49-5.62 108.31-4.72 109.12-3.83 110.22-3.3 111.32-2.76 112.74-2.76L112.74-2.76Q114.2-2.76 115.32-3.28 116.45-3.81 117.27-4.69 118.08-5.57 118.62-6.71 119.16-7.86 119.49-9.13 119.82-10.4 119.95-11.69 120.09-12.99 120.09-14.16ZM180.31-26.44L180.31-26.44 176.13-24.68Q175.65-26.27 174.83-27.59 174.01-28.91 172.88-29.85 171.74-30.79 170.3-31.31 168.86-31.84 167.15-31.84L167.15-31.84Q165.32-31.84 163.79-31.24 162.27-30.64 161.06-29.59 159.85-28.54 158.95-27.15 158.04-25.76 157.43-24.18 156.82-22.61 156.53-20.92 156.24-19.24 156.24-17.63L156.24-17.63Q156.24-15.06 156.84-12.52 157.43-9.99 158.74-7.96 160.05-5.93 162.12-4.68 164.2-3.42 167.15-3.42L167.15-3.42Q168.71-3.42 170.1-3.94 171.5-4.47 172.63-5.38 173.77-6.3 174.62-7.54 175.48-8.79 175.99-10.23L175.99-10.23 180.21-8.54Q179.28-6.23 177.67-4.48 176.06-2.73 174-1.59 171.94-0.44 169.58 0.13 167.22 0.71 164.83 0.71L164.83 0.71Q162.24 0.71 159.86 0.07 157.48-0.56 155.43-1.73 153.38-2.91 151.71-4.57 150.04-6.23 148.85-8.25 147.67-10.28 147.02-12.66 146.37-15.04 146.37-17.63L146.37-17.63Q146.37-20.21 147.02-22.6 147.67-24.98 148.85-27.01 150.04-29.05 151.71-30.71 153.38-32.37 155.43-33.54 157.48-34.72 159.86-35.35 162.24-35.99 164.83-35.99L164.83-35.99Q167.32-35.99 169.7-35.4 172.08-34.81 174.13-33.63 176.18-32.45 177.78-30.65 179.38-28.86 180.31-26.44ZM209.41-25.71L209.41-25.71 204.77-18.02Q204.48-18.99 204.01-20.21 203.55-21.44 202.87-22.5 202.18-23.56 201.23-24.28 200.28-25 199.03-25L199.03-25Q197.89-25 197.04-24.41 196.2-23.83 195.61-22.89 195.03-21.95 194.65-20.76 194.27-19.58 194.06-18.37 193.86-17.16 193.78-16.05 193.71-14.94 193.71-14.14L193.71-14.14 193.71 0 185.43 0 185.43-28.2 188.61-28.2 191.95-21.63Q192.64-23.22 193.52-24.55 194.39-25.88 195.54-26.84 196.69-27.81 198.14-28.34 199.59-28.88 201.43-28.88L201.43-28.88Q202.38-28.88 203.55-28.72 204.72-28.56 205.84-28.19 206.97-27.81 207.92-27.2 208.87-26.59 209.41-25.71ZM232.38-28.2L238.09-28.2 227.84-3.39Q226.08 0.85 223.92 5.02 221.76 9.18 219.25 13.01L219.25 13.01 216.02 11.06Q216.63 9.96 217.46 8.52 218.29 7.08 219.1 5.54 219.9 4 220.59 2.5 221.27 1 221.64-0.24L221.64-0.24 209.31-28.2 217.56-28.2 225.93-9.13 232.38-28.2ZM271.51-14.16L271.51-14.16Q271.51-11.08 270.59-8.4 269.66-5.71 267.9-3.72 266.14-1.73 263.6-0.59 261.06 0.56 257.84 0.56L257.84 0.56Q255.38 0.56 253.31-0.4 251.25-1.37 249.78-3.37L249.78-3.37 249.78 13.01 241.53 13.01 241.53-28.2 244.71-28.2 248.37-22.07Q248.91-23.61 249.85-24.87 250.79-26.12 252.02-27.01 253.25-27.91 254.73-28.39 256.21-28.88 257.84-28.88L257.84-28.88Q261.06-28.88 263.6-27.73 266.14-26.59 267.9-24.6 269.66-22.61 270.59-19.92 271.51-17.24 271.51-14.16ZM263.14-14.16L263.14-14.16Q263.14-15.23 263.03-16.44 262.92-17.65 262.65-18.85 262.38-20.04 261.91-21.14 261.43-22.24 260.7-23.08 259.97-23.93 258.93-24.43 257.89-24.93 256.52-24.93L256.52-24.93Q255.11-24.93 254.07-24.44 253.03-23.95 252.29-23.11 251.54-22.27 251.07-21.18 250.59-20.09 250.32-18.9 250.05-17.7 249.94-16.48 249.83-15.26 249.83-14.16L249.83-14.16Q249.83-13.18 249.98-12 250.13-10.82 250.44-9.62 250.76-8.42 251.27-7.3 251.79-6.18 252.53-5.3 253.28-4.42 254.26-3.89 255.25-3.37 256.52-3.37L256.52-3.37Q257.91-3.37 258.94-3.87 259.97-4.37 260.7-5.21 261.43-6.05 261.91-7.15 262.38-8.25 262.65-9.45 262.92-10.64 263.03-11.87 263.14-13.09 263.14-14.16ZM286.84-24.93L286.84 0 278.57 0 278.57-24.93 273.44-24.93 273.44-28.2 278.57-28.2 278.57-38.57 286.84-38.57 286.84-28.2 295.39-28.2 295.39-24.93 286.84-24.93ZM327.76-14.16L327.76-14.16Q327.76-11.96 327.17-10.03 326.59-8.11 325.55-6.47 324.51-4.83 323.05-3.53 321.58-2.22 319.84-1.32 318.09-0.42 316.1 0.07 314.11 0.56 312.01 0.56L312.01 0.56Q309.91 0.56 307.93 0.07 305.96-0.42 304.21-1.32 302.47-2.22 301-3.53 299.54-4.83 298.5-6.47 297.46-8.11 296.87-10.05 296.29-11.99 296.29-14.16L296.29-14.16Q296.29-16.33 296.87-18.27 297.46-20.21 298.5-21.85 299.54-23.49 301-24.79 302.47-26.1 304.21-27 305.96-27.91 307.93-28.39 309.91-28.88 312.01-28.88L312.01-28.88Q314.11-28.88 316.1-28.39 318.09-27.91 319.84-27 321.58-26.1 323.05-24.79 324.51-23.49 325.55-21.85 326.59-20.21 327.17-18.27 327.76-16.33 327.76-14.16ZM319.36-14.16L319.36-14.16Q319.36-15.33 319.23-16.64 319.09-17.94 318.77-19.2 318.46-20.46 317.91-21.62 317.36-22.78 316.55-23.65 315.75-24.51 314.62-25.04 313.5-25.56 312.01-25.56L312.01-25.56Q310.6-25.56 309.5-25.02 308.4-24.49 307.58-23.6 306.76-22.71 306.21-21.53 305.66-20.36 305.32-19.1 304.98-17.85 304.83-16.56 304.69-15.28 304.69-14.16L304.69-14.16Q304.69-13.04 304.83-11.76 304.98-10.47 305.32-9.2 305.66-7.93 306.21-6.77 306.76-5.62 307.58-4.72 308.4-3.83 309.5-3.3 310.6-2.76 312.01-2.76L312.01-2.76Q313.48-2.76 314.6-3.28 315.72-3.81 316.54-4.69 317.36-5.57 317.89-6.71 318.43-7.86 318.76-9.13 319.09-10.4 319.23-11.69 319.36-12.99 319.36-14.16ZM372.89-4.47L372.89 0 347.65 0 347.65-35.16 357.34-35.16 357.34-4.47 372.89-4.47ZM385.59-35.01L385.59-35.01Q385.59-34.08 385.23-33.25 384.88-32.42 384.27-31.81 383.66-31.2 382.83-30.85 382-30.49 381.07-30.49L381.07-30.49Q380.14-30.49 379.33-30.85 378.51-31.2 377.9-31.81 377.29-32.42 376.93-33.25 376.58-34.08 376.58-35.01L376.58-35.01Q376.58-35.94 376.93-36.76 377.29-37.57 377.9-38.18 378.51-38.79 379.33-39.15 380.14-39.5 381.07-39.5L381.07-39.5Q382-39.5 382.83-39.15 383.66-38.79 384.27-38.18 384.88-37.57 385.23-36.76 385.59-35.94 385.59-35.01ZM385.22-28.17L385.22 0 376.95 0 376.95-28.17 385.22-28.17ZM420.96-16.16L420.96-16.16Q420.96-13.31 420.27-10.21 419.57-7.1 418.32-4.13 417.08-1.15 415.35 1.48 413.61 4.1 411.54 6.01L411.54 6.01 408.44 4.32Q409.1 3.1 409.68 1.59 410.27 0.07 410.74-1.62 411.22-3.32 411.6-5.13 411.98-6.93 412.23-8.7 412.49-10.47 412.62-12.15 412.76-13.82 412.76-15.26L412.76-15.26Q412.76-16.21 412.68-17.3 412.61-18.38 412.38-19.47 412.15-20.56 411.76-21.56 411.37-22.56 410.72-23.32 410.07-24.07 409.16-24.54 408.24-25 407-25L407-25Q405.78-25 404.82-24.45 403.87-23.9 403.14-23.01 402.41-22.12 401.88-20.97 401.36-19.82 401.03-18.62 400.7-17.41 400.55-16.24 400.4-15.06 400.4-14.14L400.4-14.14 400.4 0 392.13 0 392.13-28.2 395.3-28.2 399.09-21.63Q399.77-23.27 400.8-24.61 401.82-25.95 403.11-26.9 404.41-27.86 405.98-28.37 407.56-28.88 409.39-28.88L409.39-28.88Q412.32-28.88 414.49-27.93 416.66-26.98 418.1-25.28 419.55-23.58 420.25-21.25 420.96-18.92 420.96-16.16ZM434.65-9.47L434.65 0 426.4 0 426.4-38.57 434.65-38.57 434.65-13.26Q436.68-14.72 438.65-16.48 440.61-18.24 442.39-20.18 444.18-22.12 445.7-24.15 447.23-26.17 448.38-28.2L448.38-28.2 453.99-28.2Q452.28-25.32 449.94-22.45 447.59-19.58 444.84-16.97L444.84-16.97 454.09 0 444.98 0 438.41-11.77Q436.58-10.52 434.65-9.47L434.65-9.47Z" opacity="1" transform="matrix(1,0,0,1,0,0)" fill="#d7dbde" class="wordmark-text-0" data-fill-palette-color="primary" id="text-0"></path></svg></g></svg></g></svg></g></svg></g><g transform="matrix(1,0,0,1,141.585741351791,0)"><svg viewBox="0 0 112.348517296418 112.348517296418" height="112.348517296418" width="112.348517296418"><g><svg></svg></g><g id="icon-0"><svg viewBox="0 0 112.348517296418 112.348517296418" height="112.348517296418" width="112.348517296418"><g><path d="M0 56.174c0-31.024 25.15-56.174 56.174-56.174 31.024 0 56.174 25.15 56.175 56.174 0 31.024-25.15 56.174-56.175 56.175-31.024 0-56.174-25.15-56.174-56.175zM56.174 108.187c28.726 0 52.013-23.287 52.013-52.013 0-28.726-23.287-52.013-52.013-52.013-28.726 0-52.013 23.287-52.013 52.013 0 28.726 23.287 52.013 52.013 52.013z" data-fill-palette-color="accent" fill="#f84e45" stroke="transparent"></path><ellipse rx="55.61251606172691" ry="55.61251606172691" cx="56.174258648209" cy="56.174258648209" fill="#f84e45" stroke="transparent" stroke-width="0" fill-opacity="1" data-fill-palette-color="accent"></ellipse></g><g transform="matrix(1,0,0,1,23.666318560909474,32.38364777471972)"><svg viewBox="0 0 65.01588017459905 47.581221746978564" height="47.581221746978564" width="65.01588017459905"><g><svg xmlns="http://www.w3.org/2000/svg" xmlns:xlink="http://www.w3.org/1999/xlink" version="1.1" x="0" y="0" viewBox="0 13.408 100 73.184" enable-background="new 0 0 100 100" xml:space="preserve" height="47.581221746978564" width="65.01588017459905" class="icon-dxe-0" data-fill-palette-color="quaternary" id="dxe-0"><path d="M47.827 28.983L47.81 28.997A27 27 0 0 0 45.816 30.709L45.795 30.73A27 27 0 0 0 43.978 32.634L43.971 32.643C39.944 37.305 37.5 43.37 37.5 50 37.5 54.225 38.495 58.22 40.255 61.771 43.874 60.389 46.76 57.372 47.931 53.665A16.3 16.3 0 0 1 47.5 50C47.5 46.839 48.43 43.876 50.004 41.344 50.229 40.982 50.467 40.629 50.718 40.285A17 17 0 0 1 53.135 37.63C53.211 37.562 53.283 37.49 53.362 37.424 53.575 37.24 53.8 37.068 54.022 36.895A15.5 15.5 0 0 1 55.873 35.646C56.036 35.552 56.197 35.454 56.363 35.365 56.782 35.14 57.209 34.928 57.648 34.74L57.66 34.734A16.3 16.3 0 0 1 64.092 33.411H89.842C95.451 33.411 99.998 28.933 99.998 23.411H64.092V23.408A26.44 26.44 0 0 0 47.827 28.983" fill="#ffffff" data-fill-palette-color="quaternary"></path><path d="M100 66.591H64.092C63.284 66.591 62.495 66.511 61.717 66.397A30.9 30.9 0 0 1 54.049 74.618 26.5 26.5 0 0 0 64.014 76.592H64A5 5 0 0 1 69 81.592V86.592z" fill="#ffffff" data-fill-palette-color="quaternary"></path><path d="M35.908 33.409C36.716 33.409 37.505 33.489 38.284 33.603A30.8 30.8 0 0 1 45.952 25.383 26.5 26.5 0 0 0 35.986 23.408H36A5 5 0 0 1 31 18.408V13.408L0 33.408z" fill="#ffffff" data-fill-palette-color="quaternary"></path><path d="M50.003 72.536A27 27 0 0 0 52.171 71.018L52.192 71.001A27 27 0 0 0 56.017 67.369C56.021 67.364 56.025 67.358 56.031 67.353A27 27 0 0 0 57.654 65.274L57.66 65.267H57.659A26.44 26.44 0 0 0 62.498 49.999C62.498 45.774 61.504 41.779 59.742 38.228 56.123 39.61 53.237 42.627 52.066 46.335 52.339 47.518 52.498 48.741 52.498 49.999 52.498 53.157 51.57 56.117 49.998 58.647A17.1 17.1 0 0 1 46.861 62.37C46.785 62.437 46.713 62.509 46.636 62.574 46.422 62.759 46.198 62.931 45.975 63.104A15.4 15.4 0 0 1 44.128 64.35C43.963 64.446 43.801 64.545 43.633 64.635A16 16 0 0 1 42.361 65.253L42.337 65.265A16.3 16.3 0 0 1 35.905 66.588H10.157C4.547 66.588 0 71.066 0 76.588H35.908V76.592C41.082 76.592 45.912 75.102 50.001 72.534 50.002 72.537 50.003 72.536 50.003 72.536" fill="#ffffff" data-fill-palette-color="quaternary"></path></svg></g></svg></g></svg></g></svg></g><g></g></svg></g><defs></defs></svg><rect width="395.52" height="180.27634121956802" fill="none" stroke="none" visibility="hidden"></rect></g></svg></g></svg>